<svg xmlns="http://www.w3.org/2000/svg" width="290" height="290" viewBox="0 0 290 290">
  <g id="Algolia" transform="translate(17242 2064)">
    <rect id="Rectangle_1869" data-name="Rectangle 1869" width="290" height="290" transform="translate(-17242 -2064)" fill="#fff"/>
    <g id="algolia_2_" data-name="algolia (2)" transform="translate(-17182 -2004.052)">
      <path id="Path_18719" data-name="Path 18719" d="M22.383.052H147.616A22.4,22.4,0,0,1,170,22.436v125.24a22.393,22.393,0,0,1-22.384,22.376H22.383A22.392,22.392,0,0,1,0,147.676V22.379A22.351,22.351,0,0,1,22.383.052" fill="#5468ff"/>
      <path id="Path_18720" data-name="Path 18720" d="M93.357,31.659V25.83a7.379,7.379,0,0,0-7.381-7.374H68.77a7.379,7.379,0,0,0-7.381,7.374v5.985a1.021,1.021,0,0,0,1.289.977,53.786,53.786,0,0,1,14.974-2.111,54.618,54.618,0,0,1,14.464,1.955,1,1,0,0,0,1.24-.977M46.2,39.288l-2.94-2.94a7.375,7.375,0,0,0-10.434,0l-3.513,3.506a7.345,7.345,0,0,0,0,10.42l2.89,2.89a1.047,1.047,0,0,0,1.551-.106,56.488,56.488,0,0,1,5.631-6.6,53.374,53.374,0,0,1,6.658-5.667.986.986,0,0,0,.156-1.5M77.6,57.8V83.014a.988.988,0,0,0,1.445.878l22.419-11.6a1.018,1.018,0,0,0,.411-1.388,27.89,27.89,0,0,0-23.24-14.082A1.024,1.024,0,0,0,77.6,57.8m0,60.747a33.827,33.827,0,1,1,33.881-33.83A33.879,33.879,0,0,1,77.6,118.544m0-81.883a48.032,48.032,0,1,0,48.082,48,48.066,48.066,0,0,0-48.082-48" transform="translate(9.359 6.344)" fill="#fff"/>
    </g>
  </g>
</svg>
