<svg xmlns="http://www.w3.org/2000/svg" width="290" height="290" viewBox="0 0 290 290">
  <g id="Currency_Swither" data-name="Currency Swither" transform="translate(16832 1183)">
    <g id="pop_up" data-name="pop up" transform="translate(1916 -11)">
      <g id="Whatsapp_Support" data-name="Whatsapp Support" transform="translate(32 892)">
        <rect id="Rectangle_1866" data-name="Rectangle 1866" width="290" height="290" transform="translate(-18780 -2064)" fill="#fff"/>
      </g>
    </g>
    <g id="Group_12456" data-name="Group 12456" transform="translate(-16874.527 -1223)">
      <g id="Group_12480" data-name="Group 12480" transform="translate(177.076 100)">
        <g id="Group_12456-2" data-name="Group 12456" transform="translate(10.646 0.729)">
          <path id="Path_21671" data-name="Path 21671" d="M354.109,143.415A41.982,41.982,0,1,0,312.127,185.4,41.982,41.982,0,0,0,354.109,143.415Z" transform="translate(-270.145 -101.434)" fill="#f9c795"/>
        </g>
        <g id="Group_12457" data-name="Group 12457" transform="translate(15.31 5.393)">
          <path id="Path_21672" data-name="Path 21672" d="M353.956,147.928a37.317,37.317,0,1,0-37.317,37.318A37.317,37.317,0,0,0,353.956,147.928Z" transform="translate(-279.322 -110.611)" fill="#f9ae69"/>
        </g>
        <g id="Group_12458" data-name="Group 12458" transform="translate(18.518 8.601)">
          <path id="Path_21673" data-name="Path 21673" d="M353.852,151.031a34.11,34.11,0,1,0-34.109,34.111A34.109,34.109,0,0,0,353.852,151.031Z" transform="translate(-285.633 -116.922)" fill="#f9c795"/>
        </g>
        <g id="Group_12469" data-name="Group 12469" transform="translate(10.094)">
          <g id="Group_12463" data-name="Group 12463">
            <g id="Group_12459" data-name="Group 12459" transform="translate(41.663)">
              <rect id="Rectangle_2003" data-name="Rectangle 2003" width="2.033" height="4.28" fill="#314e55"/>
            </g>
            <g id="Group_12460" data-name="Group 12460" transform="translate(41.663 81.08)">
              <rect id="Rectangle_2004" data-name="Rectangle 2004" width="2.033" height="4.279" fill="#314e55"/>
            </g>
            <g id="Group_12461" data-name="Group 12461" transform="translate(0 41.662)">
              <rect id="Rectangle_2005" data-name="Rectangle 2005" width="4.279" height="2.033" fill="#314e55"/>
            </g>
            <g id="Group_12462" data-name="Group 12462" transform="translate(81.08 41.662)">
              <rect id="Rectangle_2006" data-name="Rectangle 2006" width="4.278" height="2.033" fill="#314e55"/>
            </g>
          </g>
          <g id="Group_12468" data-name="Group 12468" transform="translate(11.782 11.781)">
            <g id="Group_12464" data-name="Group 12464" transform="translate(57.332 0)">
              <rect id="Rectangle_2007" data-name="Rectangle 2007" width="4.279" height="2.033" transform="translate(0 3.027) rotate(-45.029)" fill="#314e55"/>
            </g>
            <g id="Group_12465" data-name="Group 12465" transform="translate(0 57.333)">
              <rect id="Rectangle_2008" data-name="Rectangle 2008" width="4.279" height="2.033" transform="translate(0 3.026) rotate(-45.001)" fill="#314e55"/>
            </g>
            <g id="Group_12466" data-name="Group 12466" transform="translate(0 0)">
              <rect id="Rectangle_2009" data-name="Rectangle 2009" width="2.033" height="4.28" transform="translate(0 1.437) rotate(-44.991)" fill="#314e55"/>
            </g>
            <g id="Group_12467" data-name="Group 12467" transform="translate(57.333 57.333)">
              <rect id="Rectangle_2010" data-name="Rectangle 2010" width="2.033" height="4.278" transform="matrix(0.707, -0.707, 0.707, 0.707, 0, 1.437)" fill="#314e55"/>
            </g>
          </g>
        </g>
        <g id="Group_12470" data-name="Group 12470" transform="translate(14.751 25.413)">
          <path id="Path_21674" data-name="Path 21674" d="M278.221,150" transform="translate(-278.221 -150)" fill="none" stroke="#30241c" stroke-miterlimit="10" stroke-width="4"/>
        </g>
        <g id="Group_12471" data-name="Group 12471" transform="translate(0 25.413)">
          <path id="Path_21675" data-name="Path 21675" d="M249.2,150" transform="translate(-249.199 -150)" fill="none" stroke="#30241c" stroke-miterlimit="10" stroke-width="4"/>
        </g>
        <g id="Group_12472" data-name="Group 12472" transform="translate(0.099 11.545)">
          <path id="Path_21676" data-name="Path 21676" d="M249.394,122.715" transform="translate(-249.394 -122.715)" fill="none" stroke="#30241c" stroke-miterlimit="10" stroke-width="4"/>
        </g>
        <g id="Group_12473" data-name="Group 12473" transform="translate(14.751 11.545)">
          <path id="Path_21677" data-name="Path 21677" d="M278.221,122.715" transform="translate(-278.221 -122.715)" fill="none" stroke="#30241c" stroke-miterlimit="10" stroke-width="4"/>
        </g>
        <g id="Group_12474" data-name="Group 12474" transform="translate(0 25.413)">
          <path id="Path_21678" data-name="Path 21678" d="M249.2,150" transform="translate(-249.199 -150)" fill="none" stroke="#30241c" stroke-miterlimit="10" stroke-width="4"/>
        </g>
        <g id="Group_12475" data-name="Group 12475" transform="translate(0.099 11.545)">
          <path id="Path_21679" data-name="Path 21679" d="M249.394,122.715" transform="translate(-249.394 -122.715)" fill="none" stroke="#30241c" stroke-miterlimit="10" stroke-width="4"/>
        </g>
        <g id="Group_12479" data-name="Group 12479" transform="translate(33.171 25.677)">
          <g id="Group_12476" data-name="Group 12476" transform="translate(3.812)">
            <path id="Path_21680" data-name="Path 21680" d="M338.566,183.725a16.6,16.6,0,1,1,14.922-23.887l-1.827.893a14.573,14.573,0,1,0-.093,12.963l1.814.918A16.534,16.534,0,0,1,338.566,183.725Z" transform="translate(-321.963 -150.519)" fill="#314e55"/>
          </g>
          <g id="Group_12477" data-name="Group 12477" transform="translate(0 13.589)">
            <rect id="Rectangle_2011" data-name="Rectangle 2011" width="19.626" height="2.033" fill="#314e55"/>
          </g>
          <g id="Group_12478" data-name="Group 12478" transform="translate(0 18.333)">
            <rect id="Rectangle_2012" data-name="Rectangle 2012" width="19.626" height="2.033" fill="#314e55"/>
          </g>
        </g>
      </g>
      <g id="Group_12498" data-name="Group 12498" transform="translate(102.528 157.703)">
        <g id="Group_12481" data-name="Group 12481" transform="translate(0 0)">
          <circle id="Ellipse_2968" data-name="Ellipse 2968" cx="48.793" cy="48.793" r="48.793" transform="matrix(0.987, -0.16, 0.16, 0.987, 0, 15.632)" fill="#5aaae7"/>
        </g>
        <g id="Group_12482" data-name="Group 12482" transform="translate(6.22 6.22)">
          <circle id="Ellipse_2969" data-name="Ellipse 2969" cx="43.372" cy="43.372" r="43.372" transform="translate(0 13.895) rotate(-9.217)" fill="#479fe3"/>
        </g>
        <g id="Group_12483" data-name="Group 12483" transform="translate(10.496 10.496)">
          <circle id="Ellipse_2970" data-name="Ellipse 2970" cx="39.645" cy="39.645" r="39.645" transform="translate(0 12.701) rotate(-9.217)" fill="#5aaae7"/>
        </g>
        <g id="Group_12486" data-name="Group 12486" transform="translate(43.814 28.109)">
          <g id="Group_12484" data-name="Group 12484" transform="translate(0 4.557)">
            <path id="Path_21681" data-name="Path 21681" d="M200.9,324.425a12.179,12.179,0,0,1-12.165-12.165h2.033A10.132,10.132,0,1,0,200.9,302.129a12.165,12.165,0,1,1,12.165-12.165h-2.033A10.132,10.132,0,1,0,200.9,300.1a12.165,12.165,0,0,1,0,24.33Z" transform="translate(-188.732 -277.799)" fill="#314e55"/>
          </g>
          <g id="Group_12485" data-name="Group 12485" transform="translate(11.148)">
            <rect id="Rectangle_2013" data-name="Rectangle 2013" width="2.033" height="55.739" fill="#314e55"/>
          </g>
        </g>
        <g id="Group_12497" data-name="Group 12497" transform="translate(6.545 6.338)">
          <g id="Group_12491" data-name="Group 12491">
            <g id="Group_12487" data-name="Group 12487" transform="translate(48.588)">
              <rect id="Rectangle_2014" data-name="Rectangle 2014" width="2.033" height="4.973" fill="#314e55"/>
            </g>
            <g id="Group_12488" data-name="Group 12488" transform="translate(48.588 94.236)">
              <rect id="Rectangle_2015" data-name="Rectangle 2015" width="2.033" height="4.972" fill="#314e55"/>
            </g>
            <g id="Group_12489" data-name="Group 12489" transform="translate(0 48.587)">
              <rect id="Rectangle_2016" data-name="Rectangle 2016" width="4.973" height="2.033" fill="#314e55"/>
            </g>
            <g id="Group_12490" data-name="Group 12490" transform="translate(94.237 48.587)">
              <rect id="Rectangle_2017" data-name="Rectangle 2017" width="4.971" height="2.033" fill="#314e55"/>
            </g>
          </g>
          <g id="Group_12496" data-name="Group 12496" transform="translate(13.81 13.81)">
            <g id="Group_12492" data-name="Group 12492" transform="translate(66.635 0)">
              <rect id="Rectangle_2018" data-name="Rectangle 2018" width="4.973" height="2.033" transform="matrix(0.707, -0.707, 0.707, 0.707, 0, 3.517)" fill="#314e55"/>
            </g>
            <g id="Group_12493" data-name="Group 12493" transform="translate(0 66.635)">
              <rect id="Rectangle_2019" data-name="Rectangle 2019" width="4.973" height="2.033" transform="translate(0 3.516) rotate(-45)" fill="#314e55"/>
            </g>
            <g id="Group_12494" data-name="Group 12494" transform="translate(0 0)">
              <rect id="Rectangle_2020" data-name="Rectangle 2020" width="2.033" height="4.974" transform="translate(0 1.438) rotate(-44.996)" fill="#314e55"/>
            </g>
            <g id="Group_12495" data-name="Group 12495" transform="translate(66.636 66.635)">
              <rect id="Rectangle_2021" data-name="Rectangle 2021" width="2.033" height="4.972" transform="translate(0 1.437) rotate(-44.994)" fill="#314e55"/>
            </g>
          </g>
        </g>
      </g>
      <g id="Group_12509" data-name="Group 12509" transform="translate(112.411 167.38)">
        <g id="Group_12503" data-name="Group 12503" transform="translate(0.097 0.097)">
          <g id="Group_12499" data-name="Group 12499" transform="translate(26.124 0)">
            <rect id="Rectangle_2022" data-name="Rectangle 2022" width="2.033" height="4.973" transform="translate(0 0.783) rotate(-22.654)" fill="#314e55"/>
          </g>
          <g id="Group_12500" data-name="Group 12500" transform="translate(62.422 86.965)">
            <rect id="Rectangle_2023" data-name="Rectangle 2023" width="2.033" height="4.973" transform="matrix(0.923, -0.385, 0.385, 0.923, 0, 0.783)" fill="#314e55"/>
          </g>
          <g id="Group_12501" data-name="Group 12501" transform="translate(0 62.421)">
            <rect id="Rectangle_2024" data-name="Rectangle 2024" width="4.974" height="2.033" transform="translate(0 1.916) rotate(-22.658)" fill="#314e55"/>
          </g>
          <g id="Group_12502" data-name="Group 12502" transform="translate(86.965 26.124)">
            <rect id="Rectangle_2025" data-name="Rectangle 2025" width="4.972" height="2.033" transform="translate(0 1.915) rotate(-22.658)" fill="#314e55"/>
          </g>
        </g>
        <g id="Group_12508" data-name="Group 12508" transform="translate(0 0)">
          <g id="Group_12504" data-name="Group 12504" transform="translate(62.294)">
            <rect id="Rectangle_2026" data-name="Rectangle 2026" width="4.973" height="2.033" transform="translate(0 4.599) rotate(-67.656)" fill="#314e55"/>
          </g>
          <g id="Group_12505" data-name="Group 12505" transform="translate(26.466 87.16)">
            <rect id="Rectangle_2027" data-name="Rectangle 2027" width="4.972" height="2.033" transform="translate(0 4.598) rotate(-67.642)" fill="#314e55"/>
          </g>
          <g id="Group_12506" data-name="Group 12506" transform="translate(0 26.466)">
            <rect id="Rectangle_2028" data-name="Rectangle 2028" width="2.033" height="4.973" transform="matrix(0.38, -0.925, 0.925, 0.38, 0, 1.88)" fill="#314e55"/>
          </g>
          <g id="Group_12507" data-name="Group 12507" transform="translate(87.161 62.294)">
            <rect id="Rectangle_2029" data-name="Rectangle 2029" width="2.033" height="4.971" transform="matrix(0.38, -0.925, 0.925, 0.38, 0, 1.88)" fill="#314e55"/>
          </g>
        </g>
      </g>
      <g id="Group_12512" data-name="Group 12512" transform="translate(117.623 102.158)">
        <g id="Group_12510" data-name="Group 12510" transform="translate(0 5.275)">
          <path id="Path_21682" data-name="Path 21682" d="M134.26,164.434h-2.033a49.866,49.866,0,0,1,49.81-49.81v2.033A47.831,47.831,0,0,0,134.26,164.434Z" transform="translate(-132.227 -114.624)" fill="#314e55"/>
        </g>
        <g id="Group_12511" data-name="Group 12511" transform="translate(42.886 0)">
          <path id="Path_21683" data-name="Path 21683" d="M218.913,117.419l-1.54-1.328,4.727-5.48-5.5-4.84,1.344-1.526,7.006,6.169Z" transform="translate(-216.604 -104.245)" fill="#314e55"/>
        </g>
      </g>
      <g id="Group_12515" data-name="Group 12515" transform="translate(214.637 204.884)">
        <g id="Group_12513" data-name="Group 12513" transform="translate(1.425)">
          <path id="Path_21684" data-name="Path 21684" d="M325.9,356.167v-2.033a47.831,47.831,0,0,0,47.777-47.777h2.033A49.866,49.866,0,0,1,325.9,356.167Z" transform="translate(-325.904 -306.357)" fill="#314e55"/>
        </g>
        <g id="Group_12514" data-name="Group 12514" transform="translate(0 41.911)">
          <path id="Path_21685" data-name="Path 21685" d="M330.107,401.991l-7.006-6.17,6.041-7,1.54,1.328-4.726,5.48,5.5,4.84Z" transform="translate(-323.101 -388.816)" fill="#314e55"/>
        </g>
      </g>
    </g>
  </g>
</svg>
