<svg xmlns="http://www.w3.org/2000/svg" width="290" height="290" viewBox="0 0 290 290">
  <g id="messanger_support" data-name="messanger support" transform="translate(18266 2064)">
    <rect id="Rectangle_1867" data-name="Rectangle 1867" width="290" height="290" transform="translate(-18266 -2064)" fill="#fff"/>
    <g id="brands-and-logotypes_1_" data-name="brands-and-logotypes (1)" transform="translate(-18202.5 -2004)">
      <path id="Path_21572" data-name="Path 21572" d="M64.722,69.755c3.939-6.027,11.556-6.054,16.962-2.07L100.164,81.3a4.362,4.362,0,0,0,5.473,0l23.634-17.891c3.961-3.528,10.019.77,6.141,6.408l-23.535,36.027c-3.939,6.027-11.558,6.053-16.963,2.07L76.436,94.3a4.367,4.367,0,0,0-5.475,0L47.328,112.191c-3.961,3.527-10.021-.772-6.143-6.408Zm-1.017,91.873a77.89,77.89,0,1,0-27.052-15.649V167.95a5.334,5.334,0,0,0,7.986,4.686Zm0,0" transform="translate(-6.68 -6.68)" fill="#039dfd" fill-rule="evenodd"/>
      <path id="Path_21573" data-name="Path 21573" d="M140.911,172.557c-5.406-3.983-13.023-3.957-16.962,2.07l-23.537,36.027c-3.878,5.638,2.182,9.936,6.143,6.408l23.633-17.891a4.364,4.364,0,0,1,5.475,0l18.478,13.615c5.407,3.984,13.024,3.957,16.963-2.069l23.535-36.028c3.879-5.637-2.18-9.936-6.141-6.408l-23.633,17.892a4.364,4.364,0,0,1-5.475,0Zm0,0" transform="translate(-65.907 -111.551)" fill="#fff" fill-rule="evenodd"/>
      <path id="Path_21574" data-name="Path 21574" d="M124.521,208.361a74.607,74.607,0,0,1-66.447,9.791,3.322,3.322,0,0,0-2.709.275L36.3,229.433a1.928,1.928,0,0,1-2.005-.008,1.978,1.978,0,0,1-1-1.754V205.653a3.317,3.317,0,0,0-1.115-2.481,74.481,74.481,0,0,1-11.446-98.6,3.321,3.321,0,0,0-5.425-3.83A81.121,81.121,0,0,0,26.653,207.127V227.6a8.63,8.63,0,0,0,12.966,7.582l17.788-10.271a81.255,81.255,0,0,0,70.942-11.128,3.32,3.32,0,0,0-3.829-5.425Zm0,0" transform="translate(0 -66.354)" fill="#314e55"/>
      <path id="Path_21575" data-name="Path 21575" d="M205.332,23.76a81.129,81.129,0,0,0-104.093-8.951,3.321,3.321,0,1,0,3.83,5.425A74.484,74.484,0,0,1,208.857,124.023a3.321,3.321,0,1,0,5.425,3.83A81.129,81.129,0,0,0,205.332,23.76Zm0,0" transform="translate(-66.352)" fill="#314e55"/>
      <path id="Path_21576" data-name="Path 21576" d="M190.022,158.873a7.763,7.763,0,0,0-10.312.137l-23.541,17.822-.039.03c-.3.231-.63.492-1.516-.1L136.19,163.19a16.531,16.531,0,0,0-12.613-3.179,13.543,13.543,0,0,0-9.1,6.1l-23.516,36c-3.052,4.468-1.857,8.726.686,10.971a7.5,7.5,0,0,0,4.991,1.891,8.164,8.164,0,0,0,5.322-2.03L125.5,195.125l.04-.031c.3-.231.63-.493,1.516.1l18.424,13.574a16.531,16.531,0,0,0,12.613,3.179,13.546,13.546,0,0,0,9.1-6.1l23.516-36c3.051-4.468,1.857-8.726-.686-10.97Zm-4.809,7.241-.044.066-23.535,36.027a6.958,6.958,0,0,1-4.718,3.2,10.02,10.02,0,0,1-7.5-1.99L130.94,189.8q-.049-.037-.1-.07a7.654,7.654,0,0,0-9.368.109L97.86,207.723c-.07.053-.139.109-.2.167-.684.607-1.3.5-1.615.214-.523-.462-.128-1.471.416-2.262l.044-.066,23.535-36.027a6.964,6.964,0,0,1,4.718-3.2,10.014,10.014,0,0,1,7.5,1.99l18.48,13.615c.032.025.065.048.1.07a7.652,7.652,0,0,0,9.368-.11l23.613-17.877c.07-.053.139-.109.2-.169.682-.607,1.3-.5,1.613-.214.523.462.128,1.471-.416,2.262Zm0,0" transform="translate(-59.216 -104.858)" fill="#314e55"/>
      <path id="Path_21577" data-name="Path 21577" d="M72.445,75.267A3.321,3.321,0,1,0,70.1,69.6h0a3.321,3.321,0,0,0,2.349,5.668Zm0,0" transform="translate(-45.839 -45.839)" fill="#314e55"/>
      <path id="Path_21578" data-name="Path 21578" d="M401.359,401.084v0a3.32,3.32,0,1,0,4.691-.226A3.319,3.319,0,0,0,401.358,401.087Zm0,0" transform="translate(-267.185 -267.186)" fill="#314e55"/>
    </g>
  </g>
</svg>
