<svg xmlns="http://www.w3.org/2000/svg" width="290" height="290" viewBox="0 0 290 290">
  <g id="Product_social_share" data-name="Product social share" transform="translate(17242 2064)">
    <rect id="Rectangle_1869" data-name="Rectangle 1869" width="290" height="290" transform="translate(-17242 -2064)" fill="#fff"/>
    <g id="Page-1" transform="translate(-17182 -2003.999)">
      <g id="_005---Share-Images" data-name="005---Share-Images" transform="translate(-0.001 -0.001)">
        <path id="Shape" d="M28.612,115.926a17.586,17.586,0,0,1-16.15-14.479L1.265,37.932a17.606,17.606,0,0,1,14.274-20.37l92.356-16.3a17.586,17.586,0,0,1,20.37,14.274l2.081,11.841Z" transform="translate(-0.999 -0.999)" fill="#bdc3c7"/>
        <path id="Shape-2" data-name="Shape" d="M71.668,109.654H27.586A17.568,17.568,0,0,1,10,92.068V27.586A17.586,17.586,0,0,1,27.586,10h93.792a17.586,17.586,0,0,1,17.586,17.586V81.194Z" transform="translate(16.381 16.382)" fill="#ecf0f1"/>
        <path id="Shape-3" data-name="Shape" d="M119.516,45.182v9.76A41.034,41.034,0,0,0,66.553,78.625H19.862A5.88,5.88,0,0,1,14,72.763V68.747L41.288,41.43a2.954,2.954,0,0,1,4.162,0L55.884,51.894a2.954,2.954,0,0,0,4.162,0l31.01-31.039a2.954,2.954,0,0,1,4.162,0Z" transform="translate(24.105 35.687)" fill="#d25627"/>
        <path id="Shape-4" data-name="Shape" d="M119.516,19.862v36.9l-24.3-24.327a2.954,2.954,0,0,0-4.162,0L60.046,63.475a2.954,2.954,0,0,1-4.162,0L45.45,53.012a2.954,2.954,0,0,0-4.162,0L14,80.328V19.862A5.88,5.88,0,0,1,19.862,14h93.792a5.88,5.88,0,0,1,5.862,5.862Z" transform="translate(24.105 24.106)" fill="#f9c795"/>
        <circle id="Oval" cx="8.793" cy="8.793" r="8.793" transform="translate(49.829 49.83)" fill="#f5efca"/>
        <path id="Shape-5" data-name="Shape" d="M113.068,72.037a41.034,41.034,0,1,1-82.068,0c0-1,.029-1.964.117-2.931A41.034,41.034,0,0,1,86.689,33.7v.029a41.128,41.128,0,0,1,26.379,38.308Z" transform="translate(56.932 56.929)" fill="#40a459"/>
        <path id="Rectangle-path" d="M0,0H5.862V30.049H0Z" transform="translate(110.008 133.146) rotate(-61.385)" fill="#ecf0f1"/>
        <path id="Rectangle-path-2" data-name="Rectangle-path" d="M0,0H30.049V5.862H0Z" transform="translate(110.001 124.81) rotate(-28.615)" fill="#ecf0f1"/>
        <g id="Group_12414" data-name="Group 12414" transform="translate(99.656 102.588)">
          <circle id="Oval-2" data-name="Oval" cx="8.793" cy="8.793" r="8.793" transform="translate(0 17.586)" fill="#fff"/>
          <circle id="Oval-3" data-name="Oval" cx="8.793" cy="8.793" r="8.793" transform="translate(32.241)" fill="#fff"/>
          <circle id="Oval-4" data-name="Oval" cx="8.793" cy="8.793" r="8.793" transform="translate(32.241 35.172)" fill="#fff"/>
        </g>
      </g>
    </g>
  </g>
</svg>
