<svg xmlns="http://www.w3.org/2000/svg" width="290" height="290" viewBox="0 0 290 290">
  <g id="pwa_support" data-name="pwa support" transform="translate(18748 1172)">
    <g id="Whatsapp_Support" data-name="Whatsapp Support" transform="translate(32 892)">
      <rect id="Rectangle_1866" data-name="Rectangle 1866" width="290" height="290" transform="translate(-18780 -2064)" fill="#fff"/>
    </g>
    <g id="pwa-logo" transform="translate(-18688 -1059)">
      <path id="Path_21588" data-name="Path 21588" d="M131.841,63.873,157.646,0H140.539L122.888,41.276,110.335,0H97.185L83.709,41.276,74.2,22.467,65.6,48.915l8.732,14.959H91.171L103.35,26.858l11.612,37.016Z" transform="translate(-22.039)" fill="#f9c795"/>
      <path id="Path_21589" data-name="Path 21589" d="M16.2,41.946h10.51a30.968,30.968,0,0,0,8.505-1.066L37.933,32.5l7.6-23.418a18.71,18.71,0,0,0-1.983-2.6Q37.7,0,26.426,0H0V63.873H16.2ZM30.111,14.694a8.355,8.355,0,0,1,2.286,6.16,8.993,8.993,0,0,1-2.01,6.166q-2.2,2.532-8.114,2.532H16.2V12.393h6.119q5.508,0,7.794,2.3Zm95.014,37.739,4.911-12.393h14.176l-6.728-18.8L145.9,0,170,63.873H152.226l-4.118-11.44Z" fill="#314e55"/>
    </g>
  </g>
</svg>
