<svg xmlns="http://www.w3.org/2000/svg" xmlns:xlink="http://www.w3.org/1999/xlink" width="90" height="80" viewBox="0 0 290 290">
  <defs>
    <linearGradient id="linear-gradient" x1="0.5" x2="0.5" y2="1" gradientUnits="objectBoundingBox">
      <stop offset="0" stop-color="#e0229b"/>
      <stop offset="1" stop-color="#7e3eea"/>
    </linearGradient>
  </defs>
  <g id="Group_6036" data-name="Group 6036" transform="translate(-244 -90)">
    <g id="sports-car" transform="translate(244 90)">
      <g id="Group_19" data-name="Group 19" transform="translate(0 0)">
        <path id="Path_23" data-name="Path 23" d="M288.333,67.592a7.536,7.536,0,0,0-5.755-2.67H254.355c-6.965-17.9-16.039-35.44-26.352-42.061C192.324-.011,97.689-.011,62.01,22.861,51.689,29.489,42.652,47.05,35.65,64.922H7.426a7.479,7.479,0,0,0-5.755,2.67A7.061,7.061,0,0,0,.157,73.627l4.18,19.739a7.379,7.379,0,0,0,7.269,5.767h8.361A48.119,48.119,0,0,0,7.931,131.064c-.052,14.124,5.45,26.888,15.511,35.918.111.094.223.159.327.253v27.619a11.007,11.007,0,0,0,11.138,10.854H60.941a11.007,11.007,0,0,0,11.138-10.854v-11.1H217.919v11.1a11.007,11.007,0,0,0,11.138,10.854H255.09a11.017,11.017,0,0,0,11.138-10.854V167.778a48.736,48.736,0,0,0,3.252-68.66H278.4a7.354,7.354,0,0,0,7.269-5.774l4.188-19.732A7.155,7.155,0,0,0,288.333,67.592ZM74.239,40.987c28.439-18.241,113.08-18.241,141.5,0,5.524,3.531,12.63,17.807,19.142,35.288H55.112C61.609,58.8,68.715,44.532,74.239,40.987Zm-33.31,92.8c0-11.794,9.816-21.345,21.912-21.345s21.912,9.551,21.912,21.345-9.8,21.353-21.912,21.353S40.929,145.579,40.929,133.784Zm186.516,21.353c-12.1,0-21.912-9.558-21.912-21.353s9.816-21.345,21.912-21.345,21.912,9.551,21.912,21.345S239.542,155.137,227.446,155.137Z" transform="translate(0 -5.707)" fill="url(#linear-gradient)"/>
      </g>
    </g>
    <text id="R_B" data-name="R &amp; B" transform="translate(392 362)" fill="#a133cd" font-size="55" font-family="SFProDisplay-Bold, SF Pro Display" font-weight="700" letter-spacing="0.05em"><tspan x="-96.636" y="0">R &amp; B</tspan></text>
  </g>
</svg>
