<svg xmlns="http://www.w3.org/2000/svg" width="290" height="290" viewBox="0 0 290 290">
  <g id="slider" transform="translate(60 17)">
    <rect id="Rectangle_1969" data-name="Rectangle 1969" width="290" height="290" transform="translate(-60 -17)" fill="#fff"/>
    <rect id="Rectangle_1960" data-name="Rectangle 1960" width="78.928" height="54.643" transform="translate(54.643 91.322)" fill="#ea86a5"/>
    <path id="Path_21477" data-name="Path 21477" d="M164,164.25a3.034,3.034,0,0,1-3.036-3.036V100.5A3.034,3.034,0,0,1,164,97.464h12.143V82.286H18.286V97.464H48.643a3.034,3.034,0,0,1,3.036,3.036v60.714a3.034,3.034,0,0,1-3.036,3.036H18.286v33.393H176.143V164.25ZM72.929,185.5H63.821v-6.072h9.107Zm15.178,0H79v-6.072h9.107Zm12.143,3.036a6.072,6.072,0,1,1,6.072-6.072A6.079,6.079,0,0,1,100.25,188.536ZM121.5,185.5h-9.107v-6.072H121.5Zm15.178,0h-9.107v-6.072h9.107Zm15.178-24.286a3.034,3.034,0,0,1-3.036,3.036h-85a3.034,3.034,0,0,1-3.036-3.036V100.5a3.034,3.034,0,0,1,3.036-3.036h85a3.034,3.034,0,0,1,3.036,3.036Z" transform="translate(-12.214 -12.214)" fill="#eaeaea"/>
    <g id="Group_12387" data-name="Group 12387" transform="translate(6.072 91.322)">
      <rect id="Rectangle_1961" data-name="Rectangle 1961" width="27.322" height="54.643" fill="#d26cba"/>
      <rect id="Rectangle_1962" data-name="Rectangle 1962" width="9.107" height="54.643" transform="translate(148.75)" fill="#d26cba"/>
    </g>
    <g id="Group_12388" data-name="Group 12388" transform="translate(0 64)">
      <path id="Path_21478" data-name="Path 21478" d="M166.964,64H3.036A3.034,3.034,0,0,0,0,67.036V188.464A3.034,3.034,0,0,0,3.036,191.5H166.964A3.034,3.034,0,0,0,170,188.464V67.036A3.034,3.034,0,0,0,166.964,64ZM6.072,91.322H33.393v54.643H6.072Zm0,94.107V152.036H36.429A3.034,3.034,0,0,0,39.465,149V88.286a3.034,3.034,0,0,0-3.036-3.036H6.072V70.072H163.929V85.25H151.786a3.034,3.034,0,0,0-3.036,3.036V149a3.034,3.034,0,0,0,3.036,3.036h12.143v33.393Zm157.857-39.464h-9.107V91.322h9.107Z" transform="translate(0 -64)" fill="#314e55"/>
      <path id="Path_21479" data-name="Path 21479" d="M252.929,365.714A6.072,6.072,0,1,0,259,371.786,6.079,6.079,0,0,0,252.929,365.714Z" transform="translate(-164.893 -265.536)" fill="#314e55"/>
      <path id="Path_21480" data-name="Path 21480" d="M234.322,128h-85a3.034,3.034,0,0,0-3.036,3.036V191.75a3.034,3.034,0,0,0,3.036,3.036h85a3.034,3.034,0,0,0,3.036-3.036V131.036A3.034,3.034,0,0,0,234.322,128Zm-3.036,60.714H152.357V134.072h78.928v54.643Z" transform="translate(-97.714 -106.75)" fill="#314e55"/>
      <rect id="Rectangle_1963" data-name="Rectangle 1963" width="9.107" height="6.072" transform="translate(51.607 103.214)" fill="#314e55"/>
      <rect id="Rectangle_1964" data-name="Rectangle 1964" width="9.107" height="6.072" transform="translate(66.786 103.214)" fill="#314e55"/>
      <rect id="Rectangle_1965" data-name="Rectangle 1965" width="9.107" height="6.072" transform="translate(100.178 103.214)" fill="#314e55"/>
      <rect id="Rectangle_1966" data-name="Rectangle 1966" width="9.107" height="6.072" transform="translate(115.357 103.214)" fill="#314e55"/>
    </g>
  </g>
</svg>
