<svg xmlns="http://www.w3.org/2000/svg" width="290" height="290" viewBox="0 0 290 290">
  <g id="Whatsapp_Support" data-name="Whatsapp Support" transform="translate(18780 2064)">
    <rect id="Rectangle_1866" data-name="Rectangle 1866" width="290" height="290" transform="translate(-18780 -2064)" fill="#fff"/>
    <g id="whatsapp" transform="translate(-18719.5 -2004)">
      <g id="Group_12415" data-name="Group 12415" transform="translate(3.821 3.32)">
        <path id="Path_21579" data-name="Path 21579" d="M91.965,23.281A67.608,67.608,0,1,1,59.493,150.2l-4.69-2.575-25.208,6.813,6.873-24.526-2.859-4.87A67.621,67.621,0,0,1,91.965,23.281ZM53.1,161.844a80.882,80.882,0,1,0-30.948-30.077L10.5,173.359Zm0,0" transform="translate(-10.5 -10)" fill="#fff" fill-rule="evenodd"/>
        <path id="Path_21580" data-name="Path 21580" d="M187.447,117.608A67.608,67.608,0,1,0,61.485,151.764l2.857,4.87L57.47,181.16l25.208-6.813,4.691,2.575a67.627,67.627,0,0,0,100.077-59.313Zm-86.9-3.449a56.753,56.753,0,0,0,13.259,14.989c5.929,4.59,15.228,10.621,18.251,7.947,1.427-1.262,5.353-6.951,5.875-7.357s2.266-3.316,6.379-1.323,14.371,7.084,14.371,7.084,2.223.9,2.128,4.381a40.65,40.65,0,0,1-.245,4.375s-1.49,11.944-17.793,12.42c-7.38.215-15.926-2.794-23.5-6.656-12.925-6.59-21-13.874-29.63-25.2-5.862-7.692-11.718-17.8-10.683-26.784,1.8-15.589,11.709-17.026,11.709-17.026a41.217,41.217,0,0,1,4.383-.036c3.484.071,4.274,2.335,4.274,2.335S104.143,94.3,105.94,98.5s-.144,6.034-.575,6.537-3.017,3.556-4.346,4.921a3.589,3.589,0,0,0-.468,4.2Zm0,0" transform="translate(-38.375 -36.719)" fill="#40a459" fill-rule="evenodd"/>
        <path id="Path_21581" data-name="Path 21581" d="M159.476,160.755c-1.8-4.2-6.608-15.193-6.608-15.193s-.79-2.263-4.275-2.335a41.244,41.244,0,0,0-4.383.036S134.3,144.7,132.5,160.29c-1.035,8.984,4.821,19.09,10.683,26.784,8.634,11.329,16.707,18.613,29.63,25.2,7.573,3.861,16.119,6.871,23.5,6.656,16.3-.476,17.793-12.42,17.793-12.42a41.192,41.192,0,0,0,.245-4.376c.095-3.482-2.128-4.38-2.128-4.38s-10.259-5.089-14.372-7.084-5.855.916-6.377,1.322-4.45,6.1-5.877,7.358c-3.022,2.674-12.323-3.357-18.251-7.947a56.772,56.772,0,0,1-13.258-14.989,3.589,3.589,0,0,1,.467-4.2c1.329-1.364,3.916-4.418,4.346-4.919S161.272,164.959,159.476,160.755Zm0,0" transform="translate(-91.913 -98.976)" fill="#fff" fill-rule="evenodd"/>
      </g>
      <path id="Path_21582" data-name="Path 21582" d="M144.83,24.664A84.219,84.219,0,0,0,36.319,15.695a3.32,3.32,0,1,0,3.865,5.4,77.563,77.563,0,1,1,7.837,131.16,3.329,3.329,0,0,0-2.464-.294L8.6,161.949l10.078-35.966a3.316,3.316,0,0,0-.333-2.576,77.607,77.607,0,0,1,3.83-84.3,3.32,3.32,0,0,0-5.4-3.865A84.251,84.251,0,0,0,11.9,125.535L.624,165.783a3.319,3.319,0,0,0,4.063,4.1l41.326-11.168A84.217,84.217,0,0,0,144.83,24.664Zm0,0" fill="#314e55"/>
      <path id="Path_21583" data-name="Path 21583" d="M167.585,151.177a3.321,3.321,0,0,0,4.606-.918,70.927,70.927,0,1,0-120.25-3.494l2.143,3.652-6.491,23.167a3.32,3.32,0,0,0,4.063,4.1l23.917-6.464,3.517,1.931a70.99,70.99,0,0,0,73.4-3.193,3.32,3.32,0,1,0-3.686-5.523,64.353,64.353,0,0,1-66.518,2.895l-4.69-2.576a3.327,3.327,0,0,0-2.464-.294L55.562,169.75l5.3-18.9a3.321,3.321,0,0,0-.333-2.576l-2.859-4.87a64.289,64.289,0,1,1,109,3.17,3.319,3.319,0,0,0,.918,4.6Zm0,0" transform="translate(-27.874 -26.719)" fill="#314e55"/>
      <path id="Path_21584" data-name="Path 21584" d="M154.566,162.985l.219-.256c2.974-3.338,2.223-7.259,1.069-9.96-1.706-3.988-6.167-14.183-6.59-15.148-.659-1.665-2.857-4.3-7.279-4.4a41.915,41.915,0,0,0-4.846.06l-.08.01c-.508.074-12.467,2.009-14.532,19.932-.949,8.24,2.866,18.055,11.341,29.177,9.382,12.312,18.008,19.644,30.762,26.147,6.351,3.239,15.629,7.03,24.266,7.03.28,0,.56,0,.838-.013,9.7-.283,14.88-4.314,17.517-7.646a16.761,16.761,0,0,0,3.468-7.626,46.649,46.649,0,0,0,.276-4.751c.119-4.421-2.412-6.743-4.044-7.481-.922-.458-10.429-5.171-14.327-7.061-2.632-1.278-6.5-2.006-9.983,1.772-.018.019-.035.039-.052.056a21.13,21.13,0,0,0-2.351,2.918c-.872,1.166-2.611,3.493-3.35,4.27-1.562.11-6.783-2.189-14.185-7.921a53.592,53.592,0,0,1-12.4-14,.647.647,0,0,1-.036-.253c1.143-1.175,3-3.335,4.3-4.859Zm4.071,24.365a73.725,73.725,0,0,0,10.746,7.034c1.983,1.005,8.018,4.067,11.739.774a43.685,43.685,0,0,0,4.434-5.432c.562-.751,1.252-1.673,1.519-1.992.174-.158.318-.314.449-.457.6-.648.87-.944,2.2-.3,4,1.94,13.979,6.89,14.337,7.066a1.934,1.934,0,0,1,.293,1.322c-.074,2.752-.182,3.747-.2,3.934a.485.485,0,0,0-.016.1,10.579,10.579,0,0,1-2.287,4.637c-2.581,3.084-6.722,4.73-12.31,4.892-7.471.222-16.027-3.3-21.895-6.294-11.938-6.088-19.661-12.663-28.5-24.258-7.294-9.572-10.761-18.008-10.026-24.393,1.385-12.022,7.974-13.91,8.857-14.11.311-.019,1.364-.064,3.868-.012a1.943,1.943,0,0,1,1.306.357c.165.376,4.846,11.069,6.593,15.157.873,2.043.337,2.645.079,2.934l-.122.137-.191.224c-1.918,2.248-3.268,3.777-4.013,4.541a6.867,6.867,0,0,0-.964,8.179,59.934,59.934,0,0,0,14.1,15.956Zm0,0" transform="translate(-81.415 -88.975)" fill="#314e55"/>
      <path id="Path_21585" data-name="Path 21585" d="M76.906,77.993a3.32,3.32,0,1,0-2.233-5.777h0a3.32,3.32,0,0,0,2.235,5.776Zm0,0" transform="translate(-48.818 -47.661)" fill="#314e55"/>
      <path id="Path_21586" data-name="Path 21586" d="M390.7,388.685v0a3.32,3.32,0,1,0,4.691-.226A3.319,3.319,0,0,0,390.694,388.688Zm0,0" transform="translate(-260.061 -258.904)" fill="#314e55"/>
    </g>
  </g>
</svg>
