<svg xmlns="http://www.w3.org/2000/svg" width="290" height="290" viewBox="0 0 290 290">
  <g id="wpml_support" data-name="wpml support" transform="translate(18748 1172)">
    <g id="Whatsapp_Support" data-name="Whatsapp Support" transform="translate(32 892)">
      <rect id="Rectangle_1866" data-name="Rectangle 1866" width="290" height="290" transform="translate(-18780 -2064)" fill="#fff"/>
    </g>
    <g id="wpml-logo" transform="translate(-17978.109 -1049.686)">
      <path id="Path_21587" data-name="Path 21587" d="M121.416,159.958c1.961,4.449,1.718,11.1,4.608,14.624a6.032,6.032,0,0,0,.776.545c17.034-1,17.945-20.389,9.673-29.407-3.774-3.489-9.154-4.96-15.612-2.175-33.826,14.552-66.13,5.258-85.7-14.8a66.156,66.156,0,0,1-19.513-39.1c-5.591-47.287,33.2-77.1,59.849-80.366,24-2.942,46.129,5.352,61.323,20.89C153.292,46.419,162,70.986,156.769,99.089c-2.416,12.941-10.112,29.053-27.36,29.07a25.969,25.969,0,0,1-18.665-8.105,25.224,25.224,0,0,1-7.886-16.732C101.2,77.808,134.1,70.8,131.927,45.167A19.37,19.37,0,0,0,126.375,33.3c-10.03-9.509-30-13.191-48.267-9.467-22.489,4.585-44.1,25.016-47.879,49.592-3.051,19.888,3.956,42.609,18.8,57.849,13.139,12.945,32.133,20.115,55.545,14.771,7.537-1.724,13.254-8.788,25.651-6.838a17.911,17.911,0,0,1,10.531,5.508c9.874,9.2,8.3,28.612-4.5,33.012-6.672,2.294-18.741.465-24.058-5.383l-.144-.13a6.485,6.485,0,0,1-1.82-1.527c-2.1-1.737-3.4-5.054-3.156-8.756.357-5.283,3.724-9.364,7.511-9.107A5.7,5.7,0,0,1,118.57,155a9.122,9.122,0,0,1,2.848,4.957" transform="translate(-712.001 -71)" fill="#314e55"/>
    </g>
  </g>
</svg>
