<svg xmlns="http://www.w3.org/2000/svg" width="290" height="290" viewBox="0 0 290 290">
  <g id="YITH_wishlist" data-name="YITH wishlist" transform="translate(17742 2080)">
    <rect id="Rectangle_1868" data-name="Rectangle 1868" width="290" height="290" transform="translate(-17742 -2080)" fill="#fff"/>
    <g id="Page-1" transform="translate(-17675.057 -2020)">
      <g id="_038---Favourite-File" data-name="038---Favourite-File" transform="translate(0.057)">
        <g id="Icons" transform="translate(2.831 2.833)">
          <path id="Shape" d="M5,11.333A11.333,11.333,0,0,1,16.333,0H129.667A11.333,11.333,0,0,1,141,11.333V124.667l-34,34H16.333A11.333,11.333,0,0,1,5,147.334Z" transform="translate(9.008)" fill="#f9c795"/>
          <path id="Shape-2" data-name="Shape" d="M69.167,0h-8.5A11.333,11.333,0,0,1,72,11.333V124.667l-34,34h8.5l34-34V11.333A11.333,11.333,0,0,0,69.167,0Z" transform="translate(69.508)" fill="#dfc49c"/>
          <path id="Shape-3" data-name="Shape" d="M41,78V55.333A11.333,11.333,0,0,1,52.333,44H75" transform="translate(75.008 80.667)" fill="#d25627"/>
          <path id="Shape-4" data-name="Shape" d="M52.394,36.656A35.448,35.448,0,0,1,78.562,25c15.493,0,26.169,15.1,26.169,32.493,0,17.451-11.05,47.5-52.337,60.747C11.095,105,.056,74.943.056,57.493.056,40.1,10.735,25,26.225,25A35.448,35.448,0,0,1,52.394,36.656Z" transform="translate(-0.056 45.834)" fill="#ff605d"/>
          <path id="Shape-5" data-name="Shape" d="M47.447,25a35.046,35.046,0,0,0-4.729.346c13.419,2.236,22.4,16.212,22.4,32.147,0,16.833-10.279,45.393-48.087,59.279,1.383.507,2.794,1,4.25,1.468C62.565,105,73.616,74.943,73.616,57.493,73.616,40.1,62.939,25,47.447,25Z" transform="translate(31.059 45.834)" fill="#e04848"/>
        </g>
        <g id="Layer_2">
          <path id="Shape-6" data-name="Shape" d="M84.334,164.334h25.5a2.833,2.833,0,0,0,2-.83l34-34a2.833,2.833,0,0,0,.83-2V14.167A14.184,14.184,0,0,0,132.5,0H19.167A14.184,14.184,0,0,0,5,14.167V62.334a2.833,2.833,0,0,0,5.667,0V14.167a8.5,8.5,0,0,1,8.5-8.5H132.5a8.5,8.5,0,0,1,8.5,8.5v110.5H121.167A14.184,14.184,0,0,0,107,138.834v19.833H84.334a2.833,2.833,0,1,0,0,5.667Zm36.833-34h15.827l-24.327,24.327V138.834A8.5,8.5,0,0,1,121.167,130.334Z" transform="translate(9.005)" fill="#314e55"/>
          <path id="Shape-7" data-name="Shape" d="M13.833,11.667H19.5A2.833,2.833,0,0,0,19.5,6H13.833a2.833,2.833,0,0,0,0,5.667Z" transform="translate(20.005 11)" fill="#314e55"/>
          <path id="Shape-8" data-name="Shape" d="M104.834,6h-85a2.833,2.833,0,0,0,0,5.667h85a2.833,2.833,0,1,0,0-5.667Z" transform="translate(31.005 11)" fill="#314e55"/>
          <path id="Shape-9" data-name="Shape" d="M13.833,17.667H19.5A2.833,2.833,0,0,0,19.5,12H13.833a2.833,2.833,0,0,0,0,5.667Z" transform="translate(20.005 22)" fill="#314e55"/>
          <path id="Shape-10" data-name="Shape" d="M19.833,17.667H85A2.833,2.833,0,0,0,85,12H19.833a2.833,2.833,0,0,0,0,5.667Z" transform="translate(31.005 22)" fill="#314e55"/>
          <path id="Shape-11" data-name="Shape" d="M13.833,23.667H19.5A2.833,2.833,0,0,0,19.5,18H13.833a2.833,2.833,0,0,0,0,5.667Z" transform="translate(20.005 33)" fill="#314e55"/>
          <path id="Shape-12" data-name="Shape" d="M19.833,23.667H65.167a2.833,2.833,0,0,0,0-5.667H19.833a2.833,2.833,0,0,0,0,5.667Z" transform="translate(31.005 33)" fill="#314e55"/>
          <path id="Shape-13" data-name="Shape" d="M54.667,22.833a2.833,2.833,0,0,0-5.667,0V62.5a2.833,2.833,0,0,0,5.667,0Z" transform="translate(89.672 36.667)" fill="#314e55"/>
          <path id="Shape-14" data-name="Shape" d="M51.833,38A2.833,2.833,0,0,0,49,40.833V46.5a2.833,2.833,0,0,0,5.667,0V40.833A2.833,2.833,0,0,0,51.833,38Z" transform="translate(89.672 69.667)" fill="#314e55"/>
          <path id="Shape-15" data-name="Shape" d="M54.361,123.862a2.833,2.833,0,0,0,1.731,0c40.08-12.855,54.3-42.211,54.3-63.444,0-19.811-12.75-35.326-29-35.326a38.321,38.321,0,0,0-26.169,10.4,38.327,38.327,0,0,0-26.169-10.4c-16.261,0-29,15.515-29,35.326C.057,81.651,14.278,111.01,54.361,123.862Zm-25.3-93.1A32.958,32.958,0,0,1,53.029,41.367a2.828,2.828,0,0,0,4.386,0,32.955,32.955,0,0,1,23.97-10.608c13.084,0,23.335,13.033,23.335,29.659,0,19.176-12.988,45.707-49.5,57.766-36.5-12.059-49.493-38.59-49.493-57.766,0-16.632,10.248-29.659,23.333-29.659Z" transform="translate(-0.057 46.002)" fill="#314e55"/>
        </g>
      </g>
    </g>
  </g>
</svg>
