<svg id="broken_1_" data-name="broken (1)" xmlns="http://www.w3.org/2000/svg" xmlns:xlink="http://www.w3.org/1999/xlink" width="60" height="60" viewBox="0 0 469.336 469.335">
  <defs>
    <linearGradient id="linear-gradient" x1="-4.325" y1="5.391" x2="-4.279" y2="5.344" gradientUnits="objectBoundingBox">
      <stop offset="0" stop-opacity="0.102"/>
      <stop offset="1" stop-opacity="0"/>
    </linearGradient>
    <linearGradient id="linear-gradient-2" x1="-0.147" y1="1.317" x2="-0.093" y2="1.292" gradientUnits="objectBoundingBox">
      <stop offset="0" stop-color="#fff" stop-opacity="0.2"/>
      <stop offset="1" stop-color="#fff" stop-opacity="0"/>
    </linearGradient>
  </defs>
  <path id="Path_17432" data-name="Path 17432" d="M469.333,238.219V117.333a10.66,10.66,0,0,0-3.125-7.542L359.542,3.125A10.659,10.659,0,0,0,352,0H42.667A42.708,42.708,0,0,0,0,42.667v96a10.669,10.669,0,0,0,1.125,4.771l19.438,38.885L.448,249.385A10.83,10.83,0,0,0,0,252.448V426.667a42.709,42.709,0,0,0,42.667,42.667h61.865a10.684,10.684,0,0,0,6.2-1.99l39.917-28.51L219.8,468.469a10.624,10.624,0,0,0,4.2.865,11.011,11.011,0,0,0,2.094-.208l101.063-20.208,17.3,17.292A10.659,10.659,0,0,0,352,469.335h74.667a42.709,42.709,0,0,0,42.667-42.667v-32a10.669,10.669,0,0,0-1.125-4.771L428.159,309.8l39.656-66.094A10.628,10.628,0,0,0,469.333,238.219Z" fill="#303c42"/>
  <path id="Path_17433" data-name="Path 17433" d="M362.667,36.417l70.25,70.25H384a21.361,21.361,0,0,1-21.333-21.333Z" fill="#e16161"/>
  <path id="Path_17434" data-name="Path 17434" d="M448,426.667A21.361,21.361,0,0,1,426.667,448h-70.25l-6.008-6.008,15.633-5.211a10.663,10.663,0,1,0-6.75-20.23L327.948,427,225.156,447.563l-57.267-24.544a10.611,10.611,0,0,0-15.431-14.56l-10.052,10.052L101.115,448H42.667a21.361,21.361,0,0,1-21.333-21.333V384H441.407L448,397.188Z" fill="#e16161"/>
  <path id="Path_17435" data-name="Path 17435" d="M430.74,362.667H21.333v-38.25l96-96,67.125,67.125a10.665,10.665,0,0,0,15.083-15.083l-19.125-19.125L288,153.75,418.568,284.318l-11.714,19.526c-.064.105-.042.236-.1.342-.081.143-.22.228-.294.376L395.791,325.9a10.668,10.668,0,0,0,19.083,9.542l1.125-2.25Z" fill="#fafafa"/>
  <path id="Path_17436" data-name="Path 17436" d="M429.88,265.464,295.542,131.125a10.662,10.662,0,0,0-15.083,0L165.333,246.25l-40.458-40.458a10.662,10.662,0,0,0-15.083,0L21.333,294.25V254.01l20.62-68.729,20.922-41.844A10.668,10.668,0,0,0,43.791,133.9L32,157.479,21.333,136.146V42.667A21.361,21.361,0,0,1,42.666,21.334H341.333v64A42.709,42.709,0,0,0,384,128h64V235.26Z" fill="#e16161"/>
  <circle id="Ellipse_120" data-name="Ellipse 120" cx="53.333" cy="53.333" r="53.333" transform="translate(106.667 64)" fill="#303c42"/>
  <circle id="Ellipse_121" data-name="Ellipse 121" cx="32" cy="32" r="32" transform="translate(128 85.333)" fill="#fafafa"/>
  <path id="Path_17437" data-name="Path 17437" d="M181.076,93.444c.069.858.258,1.681.258,2.556a31.844,31.844,0,0,1-53.076,23.889,31.916,31.916,0,1,0,52.818-26.445Z" opacity="0.1"/>
  <path id="Path_17438" data-name="Path 17438" d="M384,91.583A21.361,21.361,0,0,1,362.667,70.25V85.333A21.361,21.361,0,0,0,384,106.666h48.917L417.834,91.583Z" opacity="0.1"/>
  <path id="Path_17439" data-name="Path 17439" d="M384,128a42.439,42.439,0,0,1-29.411-11.893L448,209.518V128Z" fill="url(#linear-gradient)"/>
  <path id="Path_17440" data-name="Path 17440" d="M469.333,238.219V117.333a10.66,10.66,0,0,0-3.125-7.542L359.542,3.125A10.659,10.659,0,0,0,352,0H42.667A42.708,42.708,0,0,0,0,42.667v96a10.669,10.669,0,0,0,1.125,4.771l19.438,38.885L.448,249.385A10.83,10.83,0,0,0,0,252.448V426.667a42.709,42.709,0,0,0,42.667,42.667h61.865a10.684,10.684,0,0,0,6.2-1.99l39.917-28.51L219.8,468.469a10.624,10.624,0,0,0,4.2.865,11.011,11.011,0,0,0,2.094-.208l101.063-20.208,17.3,17.292A10.659,10.659,0,0,0,352,469.335h74.667a42.709,42.709,0,0,0,42.667-42.667v-32a10.669,10.669,0,0,0-1.125-4.771L428.159,309.8l39.656-66.094A10.628,10.628,0,0,0,469.333,238.219Z" fill="url(#linear-gradient-2)"/>
</svg>
