<svg xmlns="http://www.w3.org/2000/svg" width="164.187" height="30" viewBox="0 0 164.187 30">
  <g id="main_logo" data-name="main logo" transform="translate(-862.852 -813.431)" style="isolation: isolate">
    <path id="Path_17735" data-name="Path 17735" d="M862.852,828.421c0-9.343,5.325-14.99,13.724-14.99,6.972,0,12.277,4.421,12.739,10.911h-5.907a6.718,6.718,0,0,0-6.832-5.887c-4.582,0-7.535,3.838-7.535,9.946,0,6.189,2.913,10.007,7.555,10.007a6.547,6.547,0,0,0,6.832-5.546h5.907c-.683,6.47-5.646,10.569-12.759,10.569C868.136,843.431,862.852,837.785,862.852,828.421Z" fill="#212121"/>
    <path id="Path_17736" data-name="Path 17736" d="M908.846,835.9H898.659l-2.21,7.033h-6.23l10.067-29h7.134l10.087,29h-6.45Zm-8.881-4.541h7.575l-3.717-11.876h-.141Z" fill="#212121"/>
    <path id="Path_17737" data-name="Path 17737" d="M926.529,842.929h-6.068v-29h11.875c6.671,0,10.489,3.517,10.489,9.244a8.522,8.522,0,0,1-5.265,8.238l6.109,11.514H936.8l-5.4-10.61h-4.863Zm0-15.01h5.224c3.055,0,4.843-1.748,4.843-4.622,0-2.813-1.889-4.621-4.9-4.621h-5.164Z" fill="#212121"/>
    <path id="Path_17738" data-name="Path 17738" d="M953.736,842.929V818.937h-8.379v-5H968.2v5h-8.4v23.992Z" fill="#212121"/>
    <path id="Path_17739" data-name="Path 17739" d="M976.321,834.67c.282,2.391,2.773,3.959,5.988,3.959,3.235,0,5.446-1.547,5.446-3.677,0-1.889-1.387-2.934-4.883-3.718l-3.778-.824c-5.345-1.145-7.977-3.858-7.977-8.1,0-5.345,4.622-8.882,11.092-8.882,6.751,0,10.991,3.476,11.091,8.721h-5.686c-.2-2.452-2.351-3.939-5.385-3.939-2.994,0-5,1.427-5,3.577,0,1.789,1.407,2.793,4.743,3.557l3.516.743c5.807,1.246,8.339,3.738,8.339,8.158,0,5.627-4.561,9.183-11.755,9.183-6.972,0-11.413-3.315-11.594-8.761Z" fill="#212121"/>
    <path id="Path_17740" data-name="Path 17740" d="M1004.975,842.929V832.1l-10.087-18.165h6.611l6.49,12.378h.141l6.51-12.378h6.51L1011.043,832.1v10.831Z" fill="#212121"/>
    <path id="Path_17741" data-name="Path 17741" d="M1020.568,839.935a3.235,3.235,0,1,1,3.235,3.235A3.207,3.207,0,0,1,1020.568,839.935Z" fill="#212121"/>
  </g>
</svg>
